<?xml version="1.0" encoding="utf-8"?>
<!-- Generator: Adobe Illustrator 23.0.0, SVG Export Plug-In . SVG Version: 6.00 Build 0)  -->
<svg version="1.1" id="Layer_1" xmlns="http://www.w3.org/2000/svg" xmlns:xlink="http://www.w3.org/1999/xlink" x="0px" y="0px"
	 viewBox="0 0 427.7 74.8" style="enable-background:new 0 0 427.7 74.8;" xml:space="preserve">
<style type="text/css">
	.st0{fill:#FFFFFF;}
	.st1{fill:#44A4F7;}
</style>
<g>
	<path class="st1" d="M66,0H12.5C5.6,0,0,5.6,0,12.5v49.7c0,6.9,5.6,12.5,12.5,12.5H66c6.9,0,12.5-5.6,12.5-12.5V12.5
		C78.5,5.6,72.9,0,66,0z M37.8,58.7c-15,0-26.7-13-25.1-28l1.6-14.6H24l-0.5,16.2c0,0.1,0,0.3,0,0.4c0,7.9,6.4,14.3,14.3,14.3
		c8.1,0,14.6-6.7,14.3-14.8l-0.5-16.2h9.7L66,58.7H37.8z"/>
	<g>
		<path class="st1" d="M103.1,64.3c-4.3-2.4-7.6-5.6-10.1-9.7c-2.4-4.1-3.6-8.8-3.6-14.1s1.2-10,3.6-14.1c2.4-4.1,5.8-7.4,10.1-9.7
			c4.3-2.3,9.1-3.5,14.6-3.5c4.8,0,9.2,1,13,2.9c3.8,2,6.8,4.8,8.8,8.5l-7.4,4.7c-1.7-2.6-3.8-4.5-6.3-5.8c-2.5-1.3-5.3-1.9-8.3-1.9
			c-3.5,0-6.7,0.8-9.4,2.3c-2.8,1.5-5,3.8-6.6,6.6c-1.6,2.9-2.4,6.1-2.4,9.8c0,3.8,0.8,7.1,2.4,10c1.6,2.9,3.8,5.1,6.6,6.6
			c2.8,1.5,5.9,2.3,9.4,2.3c3,0,5.8-0.6,8.3-1.9c2.5-1.3,4.6-3.2,6.3-5.8l7.4,4.6c-2.1,3.7-5,6.6-8.8,8.5c-3.8,2-8.1,3-13,3
			C112.2,67.9,107.4,66.7,103.1,64.3z"/>
		<path class="st1" d="M159.8,64.3c-4.2-2.4-7.6-5.6-10-9.7c-2.4-4.1-3.6-8.8-3.6-14.1s1.2-10,3.6-14.1c2.4-4.1,5.7-7.4,10-9.7
			c4.2-2.3,9-3.5,14.3-3.5c5.3,0,10.1,1.2,14.3,3.5c4.2,2.3,7.5,5.6,9.9,9.7c2.4,4.1,3.6,8.8,3.6,14.1s-1.2,10-3.6,14.1
			c-2.4,4.1-5.7,7.4-9.9,9.7c-4.2,2.4-9,3.5-14.3,3.5C168.8,67.9,164,66.7,159.8,64.3z M183.4,57c2.7-1.6,4.9-3.8,6.4-6.7
			c1.5-2.9,2.3-6.1,2.3-9.8c0-3.7-0.8-7-2.3-9.8c-1.5-2.9-3.7-5.1-6.4-6.6c-2.7-1.5-5.8-2.3-9.2-2.3s-6.5,0.8-9.2,2.3
			c-2.7,1.5-4.9,3.8-6.5,6.6c-1.6,2.9-2.4,6.1-2.4,9.8c0,3.7,0.8,7,2.4,9.8c1.6,2.9,3.7,5.1,6.5,6.7c2.7,1.6,5.8,2.4,9.2,2.4
			S180.7,58.6,183.4,57z"/>
		<path class="st1" d="M260.2,19.1c4,3.9,6,9.7,6,17.3v30.8h-9.7V37.6c0-5.2-1.2-9.1-3.7-11.7c-2.5-2.6-6.1-3.9-10.7-3.9
			c-5.3,0-9.4,1.5-12.4,4.6c-3,3.1-4.5,7.5-4.5,13.2v27.6h-9.7V13.7h9.3v8.1c2-2.8,4.6-4.9,7.9-6.4c3.3-1.5,7.1-2.2,11.4-2.2
			C250.8,13.2,256.2,15.2,260.2,19.1z"/>
		<path class="st1" d="M312.3,64.1c-1.4,1.2-3.2,2.1-5.3,2.8c-2.1,0.6-4.2,1-6.5,1c-5.4,0-9.6-1.4-12.5-4.3c-3-2.9-4.4-7-4.4-12.4V2
			h9.7v11.7h15.4v8h-15.4v29c0,2.9,0.7,5.1,2.2,6.7c1.4,1.5,3.5,2.3,6.2,2.3c3,0,5.5-0.8,7.6-2.5L312.3,64.1z"/>
		<path class="st1" d="M361.8,52.9l5.3,6.3c-2.4,2.8-5.3,5-8.9,6.5c-3.6,1.5-7.6,2.2-12.1,2.2c-5.7,0-10.7-1.2-15.1-3.5
			c-4.4-2.3-7.8-5.6-10.2-9.7c-2.4-4.2-3.6-8.9-3.6-14.1c0-5.2,1.2-9.9,3.5-14c2.3-4.2,5.5-7.4,9.6-9.7c4.1-2.3,8.7-3.5,13.8-3.5
			c4.8,0,9.3,1.1,13.2,3.3c4,2.2,7.1,5.3,9.5,9.2c2.4,4,3.6,8.6,3.6,13.7L328,47.8c1.3,3.7,3.6,6.6,6.8,8.6c3.2,2,7.1,3,11.6,3
			C352.8,59.4,357.9,57.2,361.8,52.9z M335.1,23.7c-2.7,1.5-4.7,3.7-6.2,6.5c-1.5,2.8-2.2,6-2.2,9.7v1l34.2-6.5
			c-0.9-3.9-2.8-7.1-5.9-9.5c-3-2.4-6.7-3.6-10.9-3.6C340.8,21.4,337.8,22.2,335.1,23.7z"/>
		<path class="st1" d="M416.7,67.3l-15.5-20.5l-15.7,20.5h-10.8l21.1-27.4l-20.1-26.2h10.8L401.3,33L416,13.7h10.6l-20.2,26.2
			l21.3,27.4H416.7z"/>
	</g>
</g>
</svg>
